# xmcd
#
# Track frame offsets: 
#        150
#        17137
#        26473
#        36011
#        47061
#        60381
#        71900
#        80875
#        90693
#        109651
#
# Disc length: 1627 seconds
#
# Revision: 0
# Processed by: cddbd v1.5.2PL0 Copyright (c) Steve Scherf et al.
# Submitted via: ExactAudioCopy v0.99pb4
#
DISCID=7f06590a
DTITLE=Various Artist - Roll On Big Mama
DYEAR=1993
DGENRE=Classic Country
TTITLE0=C.W. McCall - Convoy
TTITLE1=Johnny Horton - I'm Coming Home
TTITLE2=Barbara Mandrell - Tonight My Baby's Coming Home
TTITLE3=Jim and Jesse - Diesel On My Tail
TTITLE4=Asleep At the Wheel - Hot Rod Lincoln
TTITLE5=Joe Stampley - Roll On Big Mama
TTITLE6=Charlie Walker - Truck Driving Man
TTITLE7=Johnny Cash - All I Do Is Drive
TTITLE8=Bobby Bare - The World's Last Truck Drivin' Man
TTITLE9=Marty Robbins - Jumper Cable Man
EXTD=
EXTT0=
EXTT1=
EXTT2=
EXTT3=
EXTT4=
EXTT5=
EXTT6=
EXTT7=
EXTT8=
EXTT9=
PLAYORDER=
